<svg xmlns="http://www.w3.org/2000/svg"  viewBox="0 0 40 40" width="300px" height="300px"><path fill="#8bb7f0" d="M24.635,24.465c0,0,1.805,1.235,1.9,1.33c0.095,0.095,0,0.285,0,0.285h-1.221 c0,0,1.221,0.665,1.425,0.76c0.271,0.095,0.271,0.285,0.271,0.475h-1.235c0,0,2.47,0.95,2.755,1.045c0,0,1.045,0.285,1.14,0.38 c0.095,0.095,0.38,0.38,0.38,0.475c0,0.081-1.724,0.014-2.606-0.136c0.869,0.244,2.538,0.719,2.796,0.801 c0.421,0.095,0.57,0.19,0.76,0.285c0.19,0.095,0.475,0.475,0.475,0.475l-0.095,0.095c0,0-3.42-0.285-4.75-0.475 c1.14,0.285,4.275,0.801,4.845,0.896c0.57,0.095,1.045,0.285,1.14,0.38c0.095,0.095,0.38,0.38,0.38,0.38s-0.597,0.054-1.656,0.054 c-0.516,0-1.14,0.014-1.859-0.054c-1.126-0.095-3.556-0.326-6.311-0.896c-4.655-2.796-0.814-6.216,0.774-7.383 c0.353-0.258,1.371,0.434,1.371,0.434l0.176,0.204v0.285L24.635,24.465z"/><path fill="#8bb7f0" d="M37.568,15.535c0,0,0.57-0.19,0.665-0.19c0.095,0,0.76-1.425,0.76-1.52c0-0.19-0.76-0.475-1.52-0.475	c-0.285,0.095-0.95,0.285-0.95,0.285s0.475-0.95,0.38-1.14c-0.095-0.095-1.235-0.38-1.52-0.19c-0.19,0.095-0.855,0.475-0.76,0.38	c0.095-0.38,0.095-0.855,0.095-0.855s-0.285-0.095-0.57-0.095s-0.57,0.095-0.57,0.095s-3.687,2.857-3.705,2.85l-0.095,0.095	c0,0-0.095-0.095-0.19-0.19c-0.19,0.285-1.235,0.855-1.615,0.95c-0.237,0.059-1.514,0.045-2.925,0.187	c-0.847,0.086-1.742,0.228-2.49,0.478l-0.38-0.95h-0.38l0.19-1.425c0,0,0-0.095-0.19-0.095c-0.095,0-0.665,0.57-0.665,0.57	l0.95-2.09c0,0,0-0.285-0.19-0.285c-0.285,0-1.235,0.95-1.235,0.95l1.045-1.615c0,0,0.095-0.855-0.285-0.665	c-0.19,0.095-1.045,0.76-1.045,0.76l2.565-3.325c0,0,0.19-0.665-0.19-0.57c-0.285,0-2.28,1.9-2.28,1.9l2.755-3.04	c0,0,0.285-0.76,0-0.665c-0.665,0.19-3.515,2.47-3.515,2.47s4.14-3.795,4.235-3.985C24.038,3.665,24.038,3,23.753,3	c-0.056,0-0.153,0.033-0.281,0.091c-0.113,0.05-0.262,0.13-0.435,0.226c-1.711,0.998-3.275,2.076-4.781,3.362	c-1.813,1.548-4.214,3.654-5.054,5.641c-0.033,0.078-0.072,0.162-0.095,0.239C13.041,12.782,13,12.995,13,13.192	c0,0.297,0.408,0.538,0.969,0.808c1.235,0.593,3.078,1.577,3.078,3.34c0,0.19,0,0.475,0,0.57c-0.237,0.059-0.49,0.137-0.75,0.231	C14.48,18.799,12,20.005,12,22c0,0.76,0.19,1.14,0.475,1.33c0,1.235,1.52,1.995,1.995,1.995c0,0-0.38-0.475-0.38-1.14	c0-0.665,2.768-1.335,2.768-1.335L19,23c0,0,0.518-0.15,0.518,1.655c0,0.902-0.273,1.722-0.676,2.364	c-0.404,0.641-0.808,1.235-0.806,1.951c0.001,0.091,0.038,0.182,0.106,0.273c0.026,0.036,0.067,0.083,0.112,0.107	c1.122,0.608,1.721,0.899,2.887,1.229c1.194,0.338,2.364,0.523,3.557,0.76c1.707,0.34,2.97,0.425,4.706,0.576	c2.185,0.19,3.515,0,3.515,0s-0.285-0.285-0.38-0.38c-0.095-0.095-0.57-0.285-1.14-0.38c-0.475-0.095-3.615-0.611-4.755-0.896	c1.33,0.19,4.75,0.475,4.75,0.475l0.095-0.095c0,0-0.285-0.38-0.475-0.475c-0.19-0.095-0.38-0.285-0.76-0.285	c-0.297-0.074-2.449-0.728-3.101-0.919c0.723,0.179,2.911,0.344,2.911,0.254c0-0.095-0.285-0.38-0.38-0.475	c-0.095-0.095-0.855-0.285-1.14-0.38c-0.285-0.095-2.755-1.045-2.755-1.045s1.14,0.095,1.235,0c0-0.19,0-0.38-0.285-0.475	c-0.19-0.095-1.425-0.76-1.425-0.76h1.235c0,0,0.095-0.19,0-0.285c-0.475-0.38-1.995-1.33-1.995-1.33l0.855,0.095v-0.285	L25.23,24.08l0.092-0.008l-0.864-0.841l0.19-0.19c0,0-0.095-0.894-0.095-0.95c1.71-0.38,3.325-1.805,4.94-2.66	c0.475-0.285,1.71-0.57,1.71-0.57l-0.095-0.38c1.045,0.095,4.94,0.38,5.035,0.38c0.095,0,0.95-0.665,0.95-0.76	c0-0.095-0.57-0.57-0.57-0.57s1.045-0.095,1.14-0.095c0.095,0,0.95-0.855,0.95-1.045C38.613,16.105,37.568,15.535,37.568,15.535z"/><path fill="#c2e8ff" d="M20.019,38.5c-10.201,0-18.5-8.299-18.5-18.5c0-9.135,6.745-16.793,15.537-18.251 C11.1,5.028,7.264,11.355,7.264,18.29c0,10.438,8.492,18.93,18.93,18.93c0.182,0,0.364-0.002,0.546-0.007 C24.57,38.068,22.32,38.5,20.019,38.5z"/><path fill="#7496c4" d="M14.32,2.947C9.651,6.555,6.763,12.194,6.763,18.29c0,9.921,7.474,18.128,17.086,19.289 C22.593,37.859,21.314,38,20.018,38c-9.925,0-18-8.075-18-18C2.018,12.116,7.182,5.363,14.32,2.947 M19.923,1 C9.473,1.095,1.018,9.55,1.018,20s8.55,19,19,19c3.42,0,6.65-0.95,9.5-2.565c-1.045,0.19-2.185,0.285-3.325,0.285 c-10.165,0-18.43-8.265-18.43-18.43C7.763,10.31,12.798,3.565,19.923,1L19.923,1z"/><path fill="#7496c4" d="M26.193,36.72c1.14,0,2.28-0.095,3.325-0.285c-0.19,0.095-0.38,0.19-0.57,0.285	c-1.9,0.665-3.895,1.045-6.08,1.045c-10.26,0-17.799-8.968-17.799-17.765c0-9.025,5.639-17.29,14.189-18.905	c0.19,0,0.38-0.095,0.665-0.095C12.798,3.565,8.074,10.094,8.074,18.074C8.074,28.239,16.028,36.72,26.193,36.72z"/><path fill="#4e7ab5" d="M14.755 23.425L14.755 23.425c.76-.475 2.103-.575 2.103-.575S17.1 23 19 23s5.553-.91 5.553-.91c1.71-.38 3.325-1.805 4.94-2.66.475-.285 1.71-.57 1.71-.57l-.095-.38c0 0 .095 0 .285 0l1.356-2.339c0 0-4.528 2.119-9.716 3.099C14.746 20.806 14.755 23.425 14.755 23.425zM22 16l-.012-2.175c0 0 0-.095-.19-.095-.095 0-.665.57-.665.57l.95-2.09c0 0 0-.285-.19-.285-.285 0-1.235.95-1.235.95l1.045-1.615c0 0 .095-.855-.285-.665-.19.095-1.045.76-1.045.76l2.565-3.325c0 0 .19-.665-.19-.57-.285 0-2.28 1.9-2.28 1.9l2.755-3.04c0 0 .285-.76 0-.665-.665.19-3.515 2.47-3.515 2.47s4.14-3.795 4.235-3.985C24.038 3.665 24.038 3 23.753 3c-.475 0-3.732 2.072-6.677 4.732L16.478 8.79C16.478 8.79 15.16 15.715 22 16zM26.535 25.795c.095.095 0 .285 0 .285h-1.221c0 0 1.221.665 1.425.76.271.095.271.285.271.475h-1.235c0 0 2.47.95 2.755 1.045 0 0 1.045.285 1.14.38.095.095.38.38.38.475 0 .081-1.724.014-2.606-.136.869.244 2.538.719 2.796.801.421.095.57.19.76.285.19.095.475.475.475.475l-.095.095c0 0-3.42-.285-4.75-.475 1.14.285 4.275.801 4.845.896.57.095 1.045.285 1.14.38.095.095.38.38.38.38s-.597.054-1.656.054c-.516 0-1.14.014-1.859-.054-1.126-.095-3.556-.326-6.311-.896-4.424-2.606-.814-6.216.774-7.383.353-.258 1.371.434 1.371.434l.176.204v.285l-.855-.095C24.635 24.465 26.44 25.7 26.535 25.795z"/><path fill="#4e7ab5" d="M37.568 15.535c0 0 .57-.19.665-.19s.76-1.425.76-1.52c0-.19-.76-.475-1.52-.475-.285.095-.95.285-.95.285s.475-.95.38-1.14c-.095-.095-1.235-.38-1.52-.19-.19.095-.855.475-.76.38.095-.38.095-.855.095-.855s-.285-.095-.57-.095-.57.095-.57.095l-3.8 2.945 3.135 1.045-1.805 2.66c1.045.095 4.94.38 5.035.38s.95-.665.95-.76c0-.095-.57-.57-.57-.57s1.045-.095 1.14-.095c.095 0 .95-.855.95-1.045C38.613 16.105 37.568 15.535 37.568 15.535zM23.867 30.161c-.841-.159-1.643-.314-2.455-.544-.953-.269-1.485-.507-2.328-.955.089-.296.292-.617.532-.996l.072-.114c.543-.862.83-1.864.83-2.896 0-2.197-.81-2.658-1.489-2.658l-.03.001-2.071-.145-.155-.011-.151.036c-1.845.447-2.727.938-3.147 1.367v-.45l-.41-.274C13.045 22.474 13 22.328 13 22c0-1.033 1.292-2.069 3.639-2.919.224-.081.443-.149.652-.201l.757-.189V17.34c0-2.49-2.554-3.717-3.645-4.241-.161-.078-.276-.137-.357-.183.005-.02.012-.042.018-.064.01-.029.024-.059.037-.089l.023-.053c.734-1.737 3.042-3.779 4.482-5.013-.135-.34-.237-.694-.302-1.056-.016.013-.032.025-.048.039-1.813 1.548-4.214 3.654-5.054 5.641-.033.078-.072.162-.095.239C13.041 12.782 13 12.995 13 13.192c0 .297.408.538.969.808 1.235.593 3.078 1.577 3.078 3.34v.57c-.237.059-.49.137-.75.231C14.48 18.799 12 20.005 12 22c0 .76.19 1.14.475 1.33 0 1.235 1.52 1.995 1.995 1.995 0 0-.38-.475-.38-1.14 0-.665 2.768-1.335 2.768-1.335L19 23c0 0 .011-.003.029-.003.109 0 .489.11.489 1.658 0 .902-.273 1.722-.676 2.364-.404.641-.807 1.235-.806 1.951.001.091.038.182.106.273.026.036.067.083.112.107 1.122.608 1.721.899 2.887 1.229 1.027.29 2.037.469 3.059.665C24.05 30.897 23.941 30.533 23.867 30.161z"/><path fill="#4e7ab5" d="M37.568,15.535c0,0,0.57-0.19,0.665-0.19s0.76-1.425,0.76-1.52c0-0.19-0.76-0.475-1.52-0.475	c-0.285,0.095-0.95,0.285-0.95,0.285s0.475-0.95,0.38-1.14c-0.072-0.072-0.747-0.254-1.192-0.254c-0.141,0-0.259,0.018-0.328,0.064	c-0.169,0.085-0.715,0.395-0.766,0.395c-0.006,0-0.005-0.005,0.005-0.015c0.095-0.38,0.095-0.855,0.095-0.855	s-0.285-0.095-0.57-0.095s-0.57,0.095-0.57,0.095s-3.677,2.85-3.705,2.85h0l-0.095,0.095c0,0-0.095-0.095-0.19-0.19	c-0.19,0.285-1.235,0.855-1.615,0.95c-0.237,0.059-1.514,0.045-2.925,0.188c-0.847,0.086-1.742,0.228-2.49,0.478l-0.38-0.95	c0,0-0.002-0.014-0.005-0.036c-0.387-0.083-0.742-0.21-1.068-0.369c0.029,0.17,0.058,0.351,0.08,0.53l0.016,0.128l0.048,0.119	l0.38,0.95l0.35,0.875l0.895-0.298c0.575-0.192,1.34-0.337,2.274-0.431c0.772-0.078,1.51-0.108,2.049-0.129	c0.606-0.024,0.826-0.035,1.018-0.083c0.258-0.064,0.793-0.297,1.284-0.594l0.278,0.278l0.707-0.707l0.095-0.095l-0.008-0.008	c0.466-0.32,1.326-0.983,3.095-2.354l0.023,0.055l0.259,0.619h0.668c0.279,0,0.437-0.082,0.93-0.349l-0.933,1.87l2.184-0.625	c0,0,0.484-0.139,0.817-0.242c0.016,0.001,0.033,0.002,0.049,0.004c-0.02,0.04-0.04,0.079-0.058,0.115	c-0.099,0.03-0.216,0.067-0.354,0.113l-2.174,0.725l2.01,1.101c0.032,0.018,0.065,0.036,0.098,0.055	c-0.175,0.015-0.417,0.036-0.754,0.066l-2.404,0.219l1.255,1.046c-1.225-0.088-3.343-0.247-4.084-0.314l-1.402-0.127l0.199,0.796	c-0.355,0.112-0.726,0.251-0.99,0.404c-0.581,0.309-1.154,0.681-1.707,1.041c-0.988,0.641-2.009,1.305-2.961,1.516l-0.783,0.174	v0.802c0,0.046,0,0.088,0.051,0.58l-0.569,0.569l0.704,0.686l1.669,0.635v-0.285L25.23,24.08l0.092-0.008l-0.864-0.841l0.19-0.19	c0,0-0.095-0.894-0.095-0.95c1.71-0.38,3.325-1.805,4.94-2.66c0.475-0.285,1.71-0.57,1.71-0.57l-0.095-0.38	c1.045,0.095,4.94,0.38,5.035,0.38c0.095,0,0.95-0.665,0.95-0.76c0-0.095-0.57-0.57-0.57-0.57s1.045-0.095,1.14-0.095	c0.095,0,0.95-0.855,0.95-1.045C38.613,16.105,37.568,15.535,37.568,15.535z"/><path fill="#36404d" d="M13.5 21A0.5 0.5 0 1 0 13.5 22A0.5 0.5 0 1 0 13.5 21Z"/></svg>