<svg xmlns="http://www.w3.org/2000/svg"  viewBox="0 0 40 40" width="300px" height="300px"><path fill="#4e7ab5" d="M30,8v0.042c0.007,0.409-0.086,1.472-1.111,2.515C27.795,11.672,25.364,13,20,13	C7.32,13,5.199,2.151,5.01,1H4c0,0.129,1.913,13,16,13c11.357,0,10.999-5.751,11-6H30z"/><path fill="#4e7ab5" d="M16.996,12.919C13.504,12.347,11,7.135,11,4h-1h0c0,4.348,3.501,10,8,10v-1	C17.914,13,17.69,12.919,16.996,12.919z"/><path fill="#4e7ab5" d="M19,12.699C17.026,11.393,17,6.271,17,6h-1c0.001,0.36-0.071,8,4,8v-1L19,12.699z"/><path fill="#8bb7f0" d="M21,38.5c-8.148,0-10.786-1.36-11.988-2.293c2.101-0.663,3.68-1.229,5.338-2.849l0.695-0.68 l-0.958-0.17c-0.821-0.146-2.889-0.641-4.118-1.389c3.168-1.494,5.295-3.672,5.391-3.771l0.574-0.594l-0.792-0.233 c-0.663-0.195-2.38-0.803-3.378-1.526c1.839-1.715,3.218-4.329,4.688-7.681c0.597-1.127,1.659-1.715,3.144-1.715 c1.077,0,2.095,0.313,2.58,0.488v6.498c0.589,3.579,1.67,13.16-0.287,15.471C21.632,38.359,21.35,38.5,21,38.5z"/><path fill="#4e7ab5" d="M19.596,16.099L19.596,16.099c0.802,0,1.574,0.189,2.08,0.347v6.139v0.083l0.014,0.082 c0.794,4.772,1.447,13.059-0.183,14.983C21.308,37.968,21.145,38,21,38c-6.455,0-9.354-0.847-10.836-1.642 c1.689-0.573,3.071-1.214,4.534-2.642l1.393-1.36l-1.917-0.34c-0.829-0.147-2.088-0.471-3.097-0.897 c2.753-1.487,4.553-3.331,4.642-3.423l1.148-1.188l-1.585-0.466c-0.501-0.147-1.777-0.591-2.724-1.13 c1.67-1.755,2.968-4.245,4.336-7.36C17.423,16.574,18.307,16.099,19.596,16.099 M19.596,15.099c-1.329,0-2.767,0.435-3.601,2.015 C14.287,21.003,12.874,23.461,11,25c1.124,1.154,4,2,4,2s-2.461,2.547-6,4c1.312,1.347,5,2,5,2c-1.786,1.745-3.419,2.188-6,3 c1.037,0.881,2.741,3,13,3c4.409,0,1.676-16.415,1.676-16.415v-6.84C22.676,15.745,21.218,15.099,19.596,15.099L19.596,15.099z"/><path fill="#8bb7f0" d="M21.257,38.5c-3.1-4.39-3.757-8.125-3.757-10.5c0-5.458,3.687-10.706,4.467-11.754h1.47 c-0.198,1.567-0.649,5.895,0.104,7.885l0.982,2.031c1.81,3.099,3.258,7.368,3.922,11.523C27.714,37.935,25.628,38.479,21.257,38.5z"/><path fill="#4e7ab5" d="M22.871,16.745c-0.22,1.922-0.518,5.659,0.202,7.562l0.016,0.042l0.02,0.04l0.965,1.99l0.017,0.035 l0.02,0.033c1.701,2.911,3.087,6.928,3.77,10.887c-0.912,0.251-2.856,0.629-6.364,0.663C18.62,33.808,18,30.263,18,28 c0-5.02,3.234-9.888,4.22-11.255H22.871 M24.009,15.745h-2.29c0,0-4.719,5.927-4.719,12.255c0,3.05,1.009,6.849,4,11 c6.141,0,8-1,8-1c-0.594-4.004-1.992-8.575-4.026-12.057l-0.965-1.99C23.134,21.645,24.009,15.745,24.009,15.745L24.009,15.745z"/><path fill="#c2e8ff" d="M30.984,28.516c-0.306,0-0.441-0.065-0.465-0.088c-1.211-1.079-2.202-1.874-3.761-2.815 c-0.188-0.098-0.414-0.207-0.676-0.333c-0.773-0.374-2.069-0.998-2.476-1.356C21.674,22.389,20.5,21.291,20.5,18v-0.5H20 c-3.635,0-4.998-1.553-5.993-2.687c-0.236-0.269-0.46-0.523-0.693-0.736c0.99-0.257,2.714-0.557,5.365-0.557l0.828-0.006 c0.665-0.006,1.572-0.014,2.27-0.014c0.385,0,0.705,0.002,0.88,0.009c2.242,0.088,3.981,3.078,4.916,4.685 c0.218,0.375,0.402,0.689,0.55,0.905c2.078,3.061,4.45,5.495,7.25,7.439c0.081,0.051,0.112,0.093,0.123,0.151 c0.018,0.085-0.011,0.19-0.072,0.275c-0.325,0.326-2.064,0.898-2.9,1.173c-0.327,0.107-0.598,0.197-0.761,0.259 c-0.204,0.07-0.516,0.119-0.774,0.119H30.984z"/><path fill="#7496c4" d="M21.775,14c0.377,0,0.69,0.002,0.862,0.009c1.967,0.078,3.617,2.912,4.503,4.435 c0.218,0.375,0.407,0.699,0.567,0.933c2.045,3.012,4.369,5.427,7.097,7.373c-0.63,0.318-1.899,0.735-2.438,0.913 c-0.337,0.111-0.616,0.203-0.748,0.255c-0.143,0.049-0.394,0.098-0.633,0.098c-0.095,0-0.157-0.008-0.192-0.015 c-1.193-1.06-2.2-1.864-3.777-2.817l-0.03-0.018l-0.031-0.016c-0.161-0.083-0.392-0.194-0.659-0.323 c-0.651-0.314-2.005-0.967-2.359-1.279l-0.019-0.017l-0.02-0.016C22.216,22.181,21,21.216,21,18v-1h-1 c-3.409,0-4.633-1.395-5.618-2.516c-0.032-0.037-0.064-0.073-0.097-0.11c0.995-0.187,2.431-0.353,4.393-0.353 c0.136,0,0.443-0.003,0.832-0.006C20.174,14.008,21.079,14,21.775,14 M21.775,13c-1.103,0-2.728,0.02-3.096,0.02 C13.821,13.02,12,14,12,14c1.776,0,2.032,4,8,4c0,3.591,1.413,4.82,3.278,6.299c0.594,0.522,2.544,1.393,3.222,1.741 c1.441,0.87,2.39,1.605,3.661,2.736c0.169,0.173,0.485,0.239,0.823,0.239c0.001,0,0.003,0,0.004,0c0.339,0,0.7-0.065,0.954-0.152 c0.678-0.261,3.291-0.995,3.885-1.605c0.254-0.348,0.254-0.87-0.17-1.132c-2.883-2.002-5.172-4.439-7.122-7.312 c-0.831-1.209-2.821-5.686-5.858-5.806C22.497,13.003,22.169,13,21.775,13L21.775,13z"/><g><path fill="#4b6477" d="M26.424,20.323c-1.626-0.582-2.384-1.89-2.711-2.708C24.785,17.935,26.099,18.897,26.424,20.323z"/><path fill="#36404d" d="M23,17c0,0,0.604,3.316,4,4C27,18.464,24.443,17,23,17L23,17z"/></g><path fill="#7496c4" d="M12,14c6.287,0,9,3,9,3v1l-5-1C16,17,14.706,14,12,14z"/></svg>