<svg xmlns="http://www.w3.org/2000/svg"  viewBox="0 0 40 40" width="300px" height="300px"><path fill="#8bb7f0" d="M20.488,37.283c-1.314-0.465-2.978-1.19-2.988-4.285L17.498,32.5H16.59l-0.139,0.271 c-0.897,1.743-2.218,2.381-2.951,2.608V31.5h-0.967l-0.122,0.326c-0.038,0.102-0.885,2.313-2.911,2.635V30.5H8.587L8.44,30.734 C8.399,30.8,7.45,32.252,5.5,32.473v-3.936l-0.462-0.036c-0.029-0.002-2.589-0.221-4.138-2.082c1.518-0.21,4.59-0.965,6.197-3.663 l0.07-0.118v-0.971h17.667v1.71c-0.595,0.108-1.137,0.412-1.618,0.907C20.633,26.949,20.473,34.819,20.488,37.283z"/><path fill="#7496c4" d="M24.333,22.167v0.82c-0.537,0.173-1.031,0.49-1.477,0.949c-2.511,2.591-2.851,9.483-2.871,12.612 c-1.02-0.465-1.978-1.295-1.985-3.552L17.997,32H17h-0.105h-0.61l-0.279,0.542c-0.591,1.149-1.375,1.765-2.006,2.094V32v-1h-1 h-0.12h-0.698l-0.241,0.655C11.934,31.674,11.344,33.237,10,33.8V31v-0.998L9.002,30l-0.136,0l-0.555-0.001l-0.295,0.47 c-0.008,0.013-0.662,1.032-2.017,1.4V29l-0.004-0.923l-0.919-0.074c-0.022-0.002-1.76-0.157-3.143-1.267 c1.719-0.389,4.179-1.351,5.592-3.724l0.141-0.236V22.5v-0.333H24.333 M25.333,21.167H6.667V22.5C4.643,25.899,0,26,0,26 c1.583,2.75,5,3,5,3v4c2.611,0,3.864-2,3.864-2L9,31v4c2.778,0,3.88-3,3.88-3H13v4c0,0,2.458-0.208,3.895-3H17 c0.014,4.083,2.801,4.51,4,5c0,0-0.444-14.167,4.333-14.167V21.167L25.333,21.167z"/><path fill="#8bb7f0" d="M22.484,32.282c-1.314-0.465-2.974-1.193-2.984-4.284L19.498,27.5h-0.875l-0.147,0.229 c-0.945,1.47-2.287,1.744-2.975,1.782V25.5h-0.967l-0.122,0.326c-0.038,0.102-0.885,2.313-2.911,2.635V24.5h-0.967l-0.129,0.307 c-0.011,0.024-0.991,2.297-2.903,2.648v-3.944L7.011,23.5c-0.035-0.001-3.19-0.096-4.821-1.987 c1.412-0.326,4.359-1.277,6.032-3.763l16.802,4.801c-0.139,0.104-0.273,0.225-0.401,0.358 C22.623,24.998,22.469,30.312,22.484,32.282z"/><path fill="#7496c4" d="M8.425,18.328l15.632,4.466c-1.741,2.109-2.045,6.426-2.074,8.753 c-1.019-0.465-1.975-1.296-1.983-3.551L19.997,27H19h-0.105h-0.546l-0.295,0.459c-0.62,0.964-1.414,1.344-2.054,1.484V26v-1h-1 h-0.12l-0.693,0.005l-0.244,0.646c-0.03,0.078-0.619,1.597-1.943,2.15V25v-0.998L11.002,24l-0.136,0l-0.667-0.001l-0.257,0.616 C9.933,24.634,9.255,26.175,8,26.769V24l-0.002-0.975L7.023,23C6.994,23,4.74,22.927,3.186,21.76 C4.724,21.288,6.951,20.302,8.425,18.328 M8,17.167c-2.023,3.399-6.667,4-6.667,4C2.917,23.917,7,24,7,24v4 c2.611,0,3.864-3,3.864-3L11,25v4c2.778,0,3.88-3,3.88-3H15v4c0,0,0.118,0.016,0.319,0.016c0.702,0,2.41-0.202,3.577-2.016H19 c0.014,4.083,2.801,4.51,4,5c0,0-0.458-10.5,3.667-10.5L8,17.167L8,17.167z"/><path fill="#4e7ab5" d="M31.238 18.891L33 16 33 20zM30 20L30 16 27.333 18.667zM34 14L34 18 36.667 14zM31.042 11.375L31 16 33.659 11.898zM28 11L28 16 30.659 11.898z"/><path fill="#8bb7f0" d="M25.437,27.218c-1.467-0.67-3.822-2.103-3.833-5.22L21.603,21.5h-0.875l-0.147,0.229 c-0.934,1.452-2.292,2.213-3.08,2.555V20.5h-0.967l-0.122,0.326c-0.038,0.102-0.885,2.313-2.911,2.635V19.5h-0.967l-0.129,0.307 c-0.011,0.024-0.991,2.297-2.903,2.648v-3.918l-0.462-0.036c-0.029-0.002-2.671-0.228-4.212-2.173 c1.449-0.376,4.632-1.486,6.271-4.239l0.07-0.118V11h13.667v1.989c-0.898,1.12-1.319,1.971-1.324,2.668 c-0.01,1.572,1.958,1.77,4.042,1.979l0.401,0.04C32.932,18.189,34.5,20.416,34.5,21c-0.002,0.003-0.022,0.047-0.083,0.108 l-3.304,2.214C30.584,22.682,29.417,21.5,28,21.5c-0.596,0-1.123,0.238-1.525,0.689C25.405,23.387,25.37,25.887,25.437,27.218z"/><path fill="#7496c4" d="M24.333,11.5v1.315c-0.908,1.159-1.319,2.044-1.324,2.839c-0.013,2.027,2.277,2.257,4.491,2.48 l0.401,0.041c4.154,0.428,5.681,2.053,6.022,2.651L31.2,22.66C30.533,21.94,29.394,21,28,21c-0.742,0-1.398,0.296-1.898,0.856 c-0.981,1.099-1.188,3.067-1.188,4.529c-1.49-0.837-2.801-2.126-2.809-4.389L22.101,21h-0.996H21h-0.546l-0.295,0.459 c-0.625,0.973-1.467,1.613-2.159,2.012V21v-1h-1h-0.12h-0.698l-0.241,0.655C15.934,20.674,15.344,22.237,14,22.8V20v-0.998 L13.002,19l-0.136,0l-0.667-0.001l-0.257,0.616c-0.008,0.019-0.686,1.56-1.941,2.155V19l-0.004-0.923l-0.919-0.074 c-0.024-0.002-1.923-0.172-3.33-1.426c1.689-0.553,4.312-1.767,5.78-4.232l0.141-0.236v-0.275V11.5H24.333 M25.333,10.5H10.667 v1.333C8.643,15.232,4,16,4,16c1.583,2.75,5,3,5,3v4c2.611,0,3.864-3,3.864-3L13,20v4c2.778,0,3.88-3,3.88-3H17v4 c0,0,2.5-0.667,4-3h0.105c0.014,4.083,3.696,5.51,4.895,6c0,0-0.681-6,2-6c1.657,0,3,2,3,2l3.77-2.539 C34.903,21.328,35,21.167,35,21c0-0.832-1.722-3.278-6.996-3.821c-2.154-0.222-4.003-0.327-3.995-1.519 c0.004-0.57,0.394-1.361,1.324-2.494V10.5L25.333,10.5z"/><path fill="#8bb7f0" d="M18.479,7.603c-0.788-0.168-1.588-0.254-2.379-0.254c-0.167,0-0.332,0.004-0.495,0.012 c-2.708-0.564-4.999-2.013-6.818-4.309C9.571,2.783,10.917,2.5,12.52,2.5c2.19,0,5.176,0.523,7.067,2.99v2.013 C19.327,7.541,18.947,7.585,18.479,7.603z"/><path fill="#7496c4" d="M12.52,3c2.037,0,4.794,0.47,6.567,2.663v1.397c-0.166,0.016-0.356,0.031-0.566,0.04 c-0.801-0.167-1.614-0.252-2.42-0.252c-0.153,0-0.305,0.003-0.455,0.009C13.317,6.36,11.311,5.172,9.664,3.32 C10.419,3.142,11.424,3,12.52,3 M12.52,2C10.471,2,8.701,2.457,8,2.841c2.351,3.243,5.214,4.544,7.565,5.021 c0.176-0.009,0.354-0.014,0.535-0.014c0.737,0,1.518,0.077,2.333,0.256c1.017-0.034,1.653-0.183,1.653-0.183V5.324 C18.2,2.742,15.133,2,12.52,2L12.52,2z"/><g><path fill="#c2e8ff" d="M18.5,12.5h-0.707l-0.209,0.146c-1.702,1.702-3.271,2.416-4.083,2.696v-3.845L11.001,11.5 c-2.312-0.006-4.673-1.309-6.378-3.503C5.203,7.33,7.313,5.5,13,5.5h0.137l0.118-0.07c1.43-0.851,4.834-0.887,8.438-0.927 l0.572-0.004c1.122,0,2.305,0.079,3.514,0.236c3.519,0.454,3.662,1.761,3.723,2.319l0.052,0.475l0.477-0.03 c0.009-0.001,0.28-0.018,0.735-0.018c0.893,0,2.665,0.067,4.503,0.514c3.622,0.723,4.23,1.107,4.23,1.699 c0,0.442-0.439,0.674-0.869,0.843c-0.091,0.036-0.158,0.062-0.224,0.109c-0.646,0.466-0.983,1.539-1.34,2.676 C36.811,14.137,36.382,15.5,36,15.5c-1.186,0-1.993-0.604-2.929-1.303c-1.039-0.777-2.215-1.657-4.061-1.697l-0.201-0.002 c-1.009,0-3.532,0.159-5.147,1.633c-0.227,0.154-0.533,0.454-0.888,0.802c-1.019,0.997-2.384,2.335-4.275,2.54V12.5z"/><path fill="#7496c4" d="M22.268,4.999c1.096,0,2.256,0.078,3.448,0.232c3.128,0.404,3.241,1.437,3.29,1.879l0.105,0.948 l0.952-0.059c0.016-0.001,0.274-0.016,0.702-0.016c0.871,0,2.598,0.065,4.428,0.508c2.337,0.466,3.617,0.847,3.801,1.124 c0,0,0.007,0.022,0.007,0.081c0,0.073-0.096,0.198-0.552,0.376c-0.106,0.042-0.216,0.085-0.333,0.169 c-0.781,0.563-1.143,1.714-1.525,2.932c-0.183,0.584-0.482,1.532-0.718,1.825c-0.952-0.043-1.64-0.557-2.501-1.201 c-1.044-0.781-2.344-1.752-4.349-1.796l-0.21-0.002c-1.059,0-3.695,0.169-5.44,1.722c-0.293,0.215-0.598,0.513-0.947,0.855 c-0.857,0.839-1.974,1.934-3.425,2.299V13v-1h-1h-0.063h-0.414l-0.293,0.293c-1.247,1.247-2.413,1.938-3.23,2.311V12v-1.004 L12.996,11l-0.936,0.001L11.003,11c-2.038-0.006-4.127-1.103-5.709-2.97C6.103,7.309,8.228,6,13,6h0.275l0.236-0.141 c1.314-0.781,4.805-0.819,8.182-0.856L22.011,5L22.268,4.999 M22.268,3.999c-0.09,0-0.179,0-0.268,0.001 c-3.894,0.043-7.412,0.055-9,1C5.611,5,4,8,4,8c2.058,2.839,4.804,3.994,7,4c0.406,0.001,0.764,0.001,1.06,0.001 C12.652,12.001,13,12,13,12v4c0,0,2.312-0.375,4.937-3H18v5c3.083,0,4.967-2.775,6-3.5c1.426-1.301,3.699-1.502,4.812-1.502 c0.067,0,0.13,0.001,0.188,0.002c3.266,0.071,4.208,3,7,3c1.354,0,1.556-4.123,2.7-4.949c0.097-0.07,1.3-0.363,1.3-1.357 s-0.837-1.433-4.612-2.186c-1.864-0.453-3.648-0.527-4.623-0.527C30.284,6.982,30,7,30,7c-0.077-0.704-0.315-2.265-4.156-2.761 C24.551,4.072,23.361,3.999,22.268,3.999L22.268,3.999z"/></g><g><path fill="#8bb7f0" d="M8,8.448c0.57-0.205,1.945-0.925,4,0.071C12,8.519,9.835,9.657,8,8.448z"/><path fill="#7496c4" d="M9.921,8.004C8.999,8.004,8.349,8.322,8,8.448c0.637,0.42,1.313,0.556,1.925,0.556 C11.077,9.004,12,8.519,12,8.519C11.202,8.132,10.507,8.004,9.921,8.004L9.921,8.004z"/></g><g><path fill="#4b6477" d="M26.003,7.5c-0.477-0.004-1.658-0.469-2.829-1h2.825C26.276,6.5,26.5,6.725,26.5,7 c0,0.134-0.052,0.26-0.146,0.354C26.261,7.448,26.138,7.5,26.007,7.5H26.003z"/><path fill="#36404d" d="M24.459,6c-1.482,0-3.459,0-3.459,0S24.831,7.991,26,8c0.002,0,0.005,0,0.007,0 C26.557,8,27,7.55,27,7c0-0.552-0.447-1-1-1C25.816,6,25.199,6,24.459,6L24.459,6z"/></g><g><path fill="#4b6477" d="M39.033,10.368c-0.256-0.562-0.807-1.209-1.647-1.938c1.869,0.486,2.05,0.891,2.059,0.912 c0.025,0.066,0.034,0.13,0.045,0.219C39.542,9.954,39.288,10.212,39.033,10.368z"/><path fill="#36404d" d="M35.355,7.495C36.489,8.29,38.7,9.977,38.7,11.051c0,0,0.028-0.007,0.075-0.022 c0.296-0.094,1.346-0.514,1.214-1.509c-0.015-0.114-0.027-0.228-0.078-0.358L39.91,9.161C39.611,8.387,37.371,7.839,35.355,7.495 L35.355,7.495z"/></g></svg>